{
    "accessors" : [
        {
            "bufferView" : 0,
            "componentType" : 5125,
            "count" : 339654,
            "max" : [
                226435
            ],
            "min" : [
                0
            ],
            "type" : "SCALAR"
        },
        {
            "bufferView" : 1,
            "componentType" : 5126,
            "count" : 226436,
            "max" : [
                4.613966464996338,
                16.023761749267578,
                4.448225975036621
            ],
            "min" : [
                -4.780093193054199,
                0.5831114649772644,
                -4.250483989715576
            ],
            "type" : "VEC3"
        },
        {
            "bufferView" : 2,
            "componentType" : 5126,
            "count" : 226436,
            "max" : [
                0.999985933303833,
                0.999904215335846,
                0.9999325275421143
            ],
            "min" : [
                -0.9998463988304138,
                -0.9999540448188782,
                -0.9999691247940063
            ],
            "type" : "VEC3"
        },
        {
            "bufferView" : 3,
            "componentType" : 5126,
            "count" : 226436,
            "max" : [
                0.9999665021896362,
                0.9994538426399231,
                0.9999999403953552,
                1.0
            ],
            "min" : [
                -0.999998152256012,
                -0.9984441995620728,
                -0.999960720539093,
                1.0
            ],
            "type" : "VEC4"
        },
        {
            "bufferView" : 4,
            "componentType" : 5126,
            "count" : 226436,
            "max" : [
                1.0,
                1.0
            ],
            "min" : [
                0.0,
                0.0
            ],
            "type" : "VEC2"
        },
        {
            "bufferView" : 5,
            "componentType" : 5125,
            "count" : 245280,
            "max" : [
                118303
            ],
            "min" : [
                0
            ],
            "type" : "SCALAR"
        },
        {
            "bufferView" : 6,
            "componentType" : 5126,
            "count" : 118304,
            "max" : [
                4.484496116638184,
                15.860158920288086,
                4.434351444244385
            ],
            "min" : [
                -4.642541885375977,
                -0.012269865721464157,
                -4.105881690979004
            ],
            "type" : "VEC3"
        },
        {
            "bufferView" : 7,
            "componentType" : 5126,
            "count" : 118304,
            "max" : [
                0.999969482421875,
                1.0,
                0.999969482421875
            ],
            "min" : [
                -0.999969482421875,
                -0.999969482421875,
                -0.999969482421875
            ],
            "type" : "VEC3"
        }
    ],
    "asset" : {
        "generator" : "Khronos Blender glTF 2.0 exporter",
        "version" : "2.0"
    },
    "bufferViews" : [
        {
            "buffer" : 0,
            "byteLength" : 1358616,
            "byteOffset" : 0,
            "target" : 34963
        },
        {
            "buffer" : 0,
            "byteLength" : 2717232,
            "byteOffset" : 1358616,
            "target" : 34962
        },
        {
            "buffer" : 0,
            "byteLength" : 2717232,
            "byteOffset" : 4075848,
            "target" : 34962
        },
        {
            "buffer" : 0,
            "byteLength" : 3622976,
            "byteOffset" : 6793080,
            "target" : 34962
        },
        {
            "buffer" : 0,
            "byteLength" : 1811488,
            "byteOffset" : 10416056,
            "target" : 34962
        },
        {
            "buffer" : 0,
            "byteLength" : 981120,
            "byteOffset" : 12227544,
            "target" : 34963
        },
        {
            "buffer" : 0,
            "byteLength" : 1419648,
            "byteOffset" : 13208664,
            "target" : 34962
        },
        {
            "buffer" : 0,
            "byteLength" : 1419648,
            "byteOffset" : 14628312,
            "target" : 34962
        }
    ],
    "buffers" : [
        {
            "byteLength" : 16047960,
            "uri" : "Tree_1.bin"
        }
    ],
    "meshes" : [
        {
            "name" : "leaves.004",
            "primitives" : [
                {
                    "attributes" : {
                        "NORMAL" : 2,
                        "POSITION" : 1,
                        "TANGENT" : 3,
                        "TEXCOORD_0" : 4
                    },
                    "indices" : 0
                }
            ]
        },
        {
            "name" : "Mesh.001",
            "primitives" : [
                {
                    "attributes" : {
                        "NORMAL" : 7,
                        "POSITION" : 6
                    },
                    "indices" : 5
                }
            ]
        }
    ],
    "nodes" : [
        {
            "mesh" : 0,
            "name" : "leaves.002"
        },
        {
            "children" : [
                0
            ],
            "mesh" : 1,
            "name" : "tree.002",
            "translation" : [
                0.0,
                0.0,
                9.374180793762207
            ]
        }
    ],
    "scene" : 0,
    "scenes" : [
        {
            "name" : "Scene",
            "nodes" : [
                1
            ]
        }
    ]
}
